<?xml version="1.0" encoding="UTF-8"?>
<!DOCTYPE svg PUBLIC "-//W3C//DTD SVG 1.1//EN" "http://www.w3.org/Graphics/SVG/1.1/DTD/svg11.dtd">
<!-- Creator: CorelDRAW X7 -->
<svg xmlns="http://www.w3.org/2000/svg" xml:space="preserve" width="500mm" height="500mm" version="1.1" style="shape-rendering:geometricPrecision; text-rendering:geometricPrecision; image-rendering:optimizeQuality; fill-rule:evenodd; clip-rule:evenodd"
viewBox="0 0 50000 50000"
 xmlns:xlink="http://www.w3.org/1999/xlink">
 <defs>
  <style type="text/css">
   <![CDATA[
    .fil0 {fill:black}
   ]]>
  </style>
 </defs>
 <g id="Layer_x0020_1">
  <metadata id="CorelCorpID_0Corel-Layer"/>
  <g id="_1429676352">
   <path class="fil0" d="M19005 24172c-134,0 -275,47 -422,141 -147,94 -261,207 -341,341l-2218 3853c-81,135 -194,249 -342,342 -147,94 -286,141 -419,141 -188,0 -281,-80 -281,-241 0,-74 26,-154 80,-241l2218 -3854c54,-87 80,-167 80,-241 0,-160 -93,-241 -281,-241l-2409 0c-133,0 -274,47 -421,141 -147,94 -261,207 -341,341l-833 1445c-101,174 -148,355 -141,542 0,107 17,191 50,251l1335 2269c121,207 341,311 663,311l3372 0c134,0 276,-47 426,-141 151,-93 263,-207 337,-341l2499 -4336c53,-87 80,-167 80,-241 0,-160 -94,-241 -281,-241l-2410 0zm3886 0c-128,0 -266,47 -417,141 -151,94 -263,207 -336,341l-2509 4336c-47,87 -71,167 -71,241 0,160 94,241 281,241l6745 0c127,0 266,-47 417,-141 150,-93 262,-207 336,-341l2509 -4336c47,-87 70,-167 70,-241 0,-160 -93,-241 -281,-241l-6744 0zm1354 4336c-73,134 -185,248 -336,341 -150,94 -292,141 -426,141l0 0c-181,0 -271,-80 -271,-241 0,-74 23,-154 72,-241l1947 -3372c73,-134 185,-248 334,-341 151,-94 293,-141 427,-141l0 0c181,0 271,80 271,241 0,74 -24,154 -70,241l-1948 3372zm6213 964c127,0 266,-47 417,-141 150,-93 262,-207 336,-341l2509 -4336c47,-87 70,-167 70,-241 0,-160 -93,-241 -281,-241l-2408 0c-128,0 -266,47 -417,141 -151,94 -263,207 -336,341l-2509 4336c-47,87 -71,167 -71,241 0,160 94,241 281,241l2409 0zm10549 -8722c-34,-60 -80,-91 -141,-91 -113,0 -221,87 -321,261l-1597 2771c-81,133 -194,247 -340,341 -147,94 -288,140 -422,140l0 0 -3372 0c-134,0 -274,47 -421,141 -148,94 -261,207 -342,341l-2499 4336c-53,87 -80,167 -80,241 0,160 94,241 281,241l6745 0c133,0 274,-47 421,-141 147,-93 261,-207 341,-341l3021 -5239c81,-141 121,-295 121,-462 0,-114 -20,-204 -60,-271l-1335 -2268zm-4838 7758c-80,134 -194,248 -341,341 -147,94 -288,141 -422,141l0 0c-187,0 -281,-79 -281,-238 0,-73 30,-152 91,-237l1933 -3374c81,-136 193,-251 338,-345 147,-95 286,-142 418,-142l0 0c188,0 281,80 281,241 0,72 -28,152 -83,239l-1934 3374z"/>
   <path class="fil0" d="M23802 30521l-2025 0c-34,0 -52,-16 -52,-49 0,-22 10,-42 29,-59 19,-18 39,-26 61,-26l1417 0 109 -407 -1755 0c-38,0 -73,14 -107,40 -34,27 -56,59 -65,95l-180 675c-3,13 -5,25 -5,36 0,66 34,99 102,99l1823 0c35,0 52,17 52,50 0,22 -9,41 -27,59 -18,17 -38,26 -60,26l-1958 0 -182 675 2431 0c75,0 146,-26 213,-79 67,-53 110,-116 129,-190l198 -744c5,-17 7,-35 7,-52 0,-46 -14,-82 -43,-109 -29,-26 -67,-40 -112,-40zm-326 -541l-109 407 673 0 109 -407 -673 0zm2562 1014c-11,44 -39,66 -85,66l-1485 0c-35,0 -52,-17 -52,-50 0,-5 0,-10 2,-16l272 -1014 -404 0 -418 1552c-5,17 -7,36 -7,54 0,45 15,80 45,108 29,27 66,41 111,41l2227 0c75,0 147,-26 214,-79 66,-53 109,-116 128,-190l253 -945 -676 0 -125 473zm272 -1014l-109 407 673 0 109 -407 -673 0zm338 1755l406 0 198 -741c13,-46 41,-69 85,-69l2024 0c59,0 112,-20 161,-59 49,-39 81,-87 97,-144l144 -539c5,-17 7,-34 7,-52 0,-45 -14,-82 -42,-109 -29,-28 -66,-42 -111,-42l-2497 0 -109 407 1961 0c34,0 52,16 52,49 0,22 -9,42 -27,59 -19,18 -39,26 -61,26l-1828 0c-38,0 -73,13 -106,39 -33,26 -54,58 -64,96l-290 1079zm2834 0l406 0 199 -741c12,-46 41,-69 85,-69l2024 0c58,0 112,-20 160,-59 49,-39 81,-87 97,-144l144 -539c5,-17 7,-34 7,-52 0,-45 -14,-82 -42,-109 -28,-28 -65,-42 -111,-42l-2497 0 -108 407 1960 0c35,0 52,16 52,49 0,22 -9,42 -27,59 -18,18 -38,26 -60,26l-1828 0c-38,0 -74,13 -107,39 -33,26 -54,58 -64,96l-290 1079zm2891 -203c-6,24 -10,42 -10,54 0,45 15,80 45,108 30,27 67,41 111,41l2497 0 182 -675 -2228 0c-34,0 -51,-17 -51,-50 0,-5 0,-10 2,-16l271 -1014 -403 0 -416 1552zm5272 -1552c-24,0 -59,7 -107,19 -83,22 -155,57 -217,104l-463 350c-52,39 -108,62 -168,68l-1216 0 -71 269c-3,13 -4,25 -4,36 0,66 33,99 101,99l676 0c69,0 103,33 103,99 0,13 -1,25 -4,36l-182 675 541 0 144 -541c6,-23 19,-51 38,-82 39,-65 89,-113 148,-144l1000 -529c74,-40 155,-57 245,-52l109 -407 -673 0zm-1621 0l-403 0 -109 407 404 0 108 -407z"/>
   <g>
    <path class="fil0" d="M35933 21634c-9,524 -1129,1263 -2501,1649 -81,23 -162,44 -241,64 89,-20 180,-41 271,-64 1541,-386 2784,-1125 2777,-1649 -5,-326 -493,-492 -1232,-478 569,12 931,177 926,478z"/>
    <path class="fil0" d="M32612 23591c0,0 143,-564 556,-564 -413,0 -270,-563 -270,-563 0,0 -143,563 -556,563 413,0 270,564 270,564z"/>
    <path class="fil0" d="M31071 23003c9,-525 1128,-1263 2501,-1650 81,-23 161,-44 240,-63 -89,19 -179,40 -270,63 -1541,387 -2785,1125 -2777,1650 5,326 492,492 1231,478 -568,-13 -930,-178 -925,-478z"/>
    <path class="fil0" d="M33457 23252c0,0 358,-1414 1394,-1414 -1036,0 -678,-1413 -678,-1413 0,0 -358,1413 -1393,1413 1035,0 677,1414 677,1414z"/>
   </g>
   <polygon class="fil0" points="14333,15943 11982,22072 7598,22391 11858,23010 9905,34057 13408,23012 29687,22539 13780,22065 "/>
  </g>
 </g>
</svg>
